<svg xmlns="http://www.w3.org/2000/svg" width="800" height="600" viewBox="0 0 800 600">
  <defs>
    <linearGradient id="bg" x1="0" y1="0" x2="0" y2="1">
      <stop offset="0%" stop-color="#ffffff" />
      <stop offset="100%" stop-color="#eef7ee" />
    </linearGradient>
  </defs>
  <rect width="800" height="600" fill="url(#bg)" />
  <rect x="80" y="100" width="640" height="400" rx="18" fill="#ffffff" stroke="#dfe7dd" />
  <rect x="120" y="140" width="560" height="320" rx="8" fill="#fbfdf9" />
  <rect x="140" y="170" width="480" height="40" rx="6" fill="#f0f6ef" />
  <rect x="140" y="220" width="480" height="14" rx="6" fill="#e6efe5" />
  <rect x="140" y="245" width="420" height="14" rx="6" fill="#e6efe5" />
  <rect x="140" y="270" width="360" height="14" rx="6" fill="#e6efe5" />
  <rect x="140" y="310" width="260" height="8" rx="6" fill="#dce6db" />
  <path d="M430 360 C460 340, 520 330, 560 360" stroke="#2f7f46" stroke-width="6" fill="none" stroke-linecap="round" />
  <rect x="460" y="328" width="120" height="18" rx="6" fill="#2f7f46" />
  <g transform="translate(120,360)">
    <path d="M90 0 C110 -6, 130 -6, 150 0 C170 6, 170 20, 150 26 L60 26 C40 20, 40 6, 60 0 Z" fill="#f4eada" />
    <path d="M60 26 L160 26 L185 50 L35 50 Z" fill="#d9d9d9" />
    <rect x="145" y="6" width="8" height="28" rx="2" fill="#6b6b6b" transform="rotate(-25 149 20)" />
  </g>
  <g>
    <circle cx="680" cy="480" r="36" fill="#7bb270" opacity="0.95" />
    <text x="680" y="488" text-anchor="middle" font-family="Merriweather, serif" font-size="22" fill="#15421f" font-weight="700">TRD</text>
  </g>
</svg>
