<?xml version="1.0" encoding="UTF-8"?>
<svg viewBox="0 0 32 32" xmlns="http://www.w3.org/2000/svg">
  <title>The Right Draft — Favicon</title>
  <desc>Favicon-optimised logo mark at 32x32.</desc>
  <circle cx="16" cy="16" r="16" fill="#2F7F46"/>
  <g transform="scale(0.355) translate(-38,-38) translate(38,38) rotate(-45,38,38)">
    <rect x="33.5" y="7" width="9" height="13" rx="4.5" fill="white"/>
    <rect x="41.2" y="8.5" width="1.8" height="11" rx="0.9" fill="#C8A84B"/>
    <rect x="33" y="20" width="10" height="2.5" fill="#C8A84B"/>
    <rect x="33.5" y="22.5" width="9" height="35" rx="0.5" fill="rgba(255,255,255,0.88)"/>
    <rect x="33.5" y="57.5" width="9" height="2.5" fill="#C8A84B"/>
    <rect x="34" y="60" width="8" height="4.5" fill="white"/>
    <path d="M34,64.5 L36.2,64.5 L38,74.5 L37,74.5 Z" fill="#C8A84B"/>
    <path d="M42,64.5 L39.8,64.5 L38,74.5 L39,74.5 Z" fill="#C8A84B"/>
  </g>
  <g transform="translate(42,41)">
    <rect x="0" y="0" width="8" height="7" rx="1.8" fill="rgba(255,255,255,0.2)"/>
    <rect x="0" y="0" width="8" height="1.8" rx="0.9" fill="#C8A84B"/>
  </g>
</svg>